<svg version="1.1" preserveAspectRatio="none" xmlns="http://www.w3.org/2000/svg" width="500" height="500" viewBox="0 0 500 500"><rect width="100%" height="100%" fill="#0F222D" fill-opacity="1"/><svg viewBox="-20.9978 106.843 374.0304 120" width="333" height="106.83623577121004" x="83.5px" y="196.5819px" xmlns="http://www.w3.org/2000/svg" xmlns:xlink="http://www.w3.org/1999/xlink" preserveAspectRatio="none"><defs></defs><style>.aIptOCySncolors-3 {fill:#21303A;fill-opacity:1;}.aIptOCySncolors-4 {fill:#51819E;fill-opacity:1;}.aIptOCySncolors-5 {fill:#064B75;fill-opacity:1;}.aIptOCySncolors-6 {fill:#ACA58C;fill-opacity:1;}.aIptOCySncolors-7 {fill:#3E5563;fill-opacity:1;}.companyName {fill:#EBE7D9;fill-opacity:1;}.icon1 {fill:#FFF5D0;fill-opacity:1;}.icon2 {fill:#BA3521;fill-opacity:1;}.icon3 {fill:#F55139;fill-opacity:1;}.icon3-str {stroke:#F55139;stroke-opacity:1;}</style><g opacity="1" transform="rotate(0 -20.9978 106.843)">
<svg width="128.5032" height="120" x="-20.9978" y="106.843" version="1.1" preserveAspectRatio="none" viewBox="0.5005836486816406 3.7783355712890625 98.99919891357422 92.44832611083984">
  <g transform="matrix(1 0 0 1 0 0)" class="icon1"><path d="m76.949 29.727c0.042969 0.023438-0.35547-1.4062-0.45703-1.5625-0.59766-1.1055-2.3477-1.3594-3.4141-1.7617-1.4766-0.46484-3.0508 0.46484-3.5117 1.9062-0.035156 0.22266-2.8984 8.5469-2.7227 8.5312-0.14453 1.2617 0.58984 2.5781 1.8516 3 0.35938 0.10156 2.125 0.74219 2.4648 0.75781 0.99219 0.12891 2.0195-0.35547 2.6094-1.1602l0.35547 0.12109c-0.16797 1.082 0.47656 2.2344 1.5391 2.5664l4.6523 1.5273-7.8867 24.066c-1.3711-0.12891-2.7578 0.75391-3.1875 2.0742l-0.36719 1.1367-7.75 3.4219-11.285 0.007813v-64.84h35.621v20.934l-5.3867-1.7617c-1.0586-0.35938-2.2617 0.17188-2.7539 1.1602zm5.5977 34.598 2.9102-3.9805v-9.3359l-4.8164 14.719 1.6953-0.74609c0-0.23438 0.066406-0.45703 0.21094-0.65625zm4.0273 12.266h-5.4531l-1.7969 0.79297c-0.089844 0.24219-0.79297 2.418-0.89062 2.7227h12.77v-4.8398l-3.5117-0.39062c0.074219 0.82812-0.13281 1.6758-1.1172 1.7148zm1.1172-19.305 0.5-0.69141c0.51953-0.80859 1.957-0.26562 3.0117-0.23438v-9.1211c-0.019531-0.023437-3.3867-1.125-3.5117-1.1719zm-13.027-27.824c-0.054687-0.21094-0.26172-0.28125-0.44531-0.33594-0.0625-0.003906-1.9844-0.69531-1.9961-0.61328-0.25781 0.039062-0.44922 0.24609-0.53516 0.49219l-2.5977 7.918c-0.0625 0.18359-0.023438 0.37109 0.023437 0.54688 0.039063 0.32422 1.6289 0.64844 2.2734 0.90234 0.5 0.12891 0.67188-0.45312 0.82422-0.80469 0.19531-0.35547 0.56641-0.59766 0.96094-0.58984 0.27344-0.03125 1.3633 0.36719 1.6406 0.45703 0.35938-1.0898 1.4492-4.4258 1.7969-5.4648l-1.2695-0.41406c-0.66406-0.21094-0.90625-0.98047-0.65625-1.5742 0.058594-0.16797 0.039062-0.35547-0.019532-0.51953zm20.777 19.551c0.38281 0.53906-0.027344 1.3086-0.19141 1.8516l3.3242 1.0938 0.92578-2.8125-3.7812-11.91c-0.12109-0.37891-0.33594-0.71484-0.61328-0.99219-0.30859 0.94531-2.6992 8.2461-2.9336 8.9883 1.4805 0.58203 2.4492 2.5156 3.2695 3.7812zm-19.117-9.0586 13.742 4.5391c0.57422-1.7578 2.3945-7.3398 3-9.1914l-13.684-4.4961c-0.45312 1.0312-2.668 8.0898-3.0586 9.1484zm0.85938 29.164 0.54688-1.6953c0.58203-1.8086 6.8984-21.055 7.2812-22.227l-2.5742-0.84766c-1.9609 5.9727-5.918 18.047-7.8633 24 0.57812 0.19531 1.9961 0.65625 2.5742 0.85938zm14.02 0.33594v-8.0977c0-0.44531 0.25781-0.84766 0.65625-1.0273l3.0117-1.3281c-1.3086-0.14453-3.9609-0.42969-5.2656-0.57031l-4.875 6.6797c0.26562 0.54297-0.003907 1.2461-0.55859 1.4844l-4.4727 1.9844-0.45703 1.3828c1.1953 0.71484 1.7891 2.2812 1.3281 3.6016l-0.32422 0.96094c1.418-0.62109 4.4336-1.9531 5.8672-2.5859 0.023438-0.011719 0.35547-0.15625 0.35547-0.15625 0.71484-0.32422 1.4062 0.19922 1.6055 0.89062 2.043 0.21875 6.2031 0.66797 8.2305 0.89062l3.1211-4.2812-4.8516 2.1406c-1.4453 0.69141-3.2109-0.39062-3.3711-1.9688zm-14.086 2.0859-2.7656-0.90234c-0.011718 0-0.023437-0.011719-0.035156-0.011719l-1.1602-0.37891c-0.59766-0.25391-1.4883-0.55078-1.7969 0.24609-2.0977 6.4258-5.3555 16.379-7.4727 22.863-0.14453 0.41406 0.089843 0.87109 0.5 1.0039l5.5859 1.8281c0.42578 0.13281 0.87109-0.089844 1.0039-0.51172 1.7734-5.4102 5.7578-17.598 7.4844-22.852 0.28516-0.88281-0.74219-1.0859-1.3438-1.2852zm-25.562 15.691 14.02-6.1992 2.2305-6.8359 0.13281-0.41406-18.68 8.2656c-0.53516 0.25-1.2617-0.027344-1.4727-0.58984l-8.2305-0.88281-3.1211 4.2812 4.8516-2.1523c1.2031-0.52344 2.6094 0.023437 3.1445 1.2031l2.6211 5.9453c0.52344 1.1914-0.011719 2.5977-1.1914 3.1328l-4.875 2.1523 5.2734 0.57031 4.875-6.6797c-0.40234-0.60938-0.29297-1.4961 0.42188-1.7969zm-14.418-7.1289h-36.637v-76.324h90.703v28.562l-3.5117-1.1484v-22.785c0-0.61328-0.5-1.1172-1.1172-1.1172h-37.852c-0.61328 0-1.1172 0.5-1.1172 1.1172l0.003906 67.07c0 0.61328 0.5 1.1172 1.1172 1.1172h7.3594l-6.7812 3c-0.17969-0.15625-0.40234-0.25781-0.63672-0.28906l-9.5117-1.0156c-0.93359-0.17578-1.5156 1.2539-2.0195 1.8125zm-32.02-3.5234h37.863c0.61328 0 1.1172-0.49219 1.1172-1.1172l-0.003906-67.055c0-0.61328-0.5-1.1172-1.1172-1.1172h-37.859c-0.61328 0-1.1172 0.5-1.1172 1.1172v67.059c0.003906 0.625 0.50391 1.1133 1.1172 1.1133zm1.1172-67.059h35.633v64.828h-35.633zm10.48 34.895 16.238-16.238c1.0508-1.0312-0.55078-2.5938-1.5742-1.5742l-16.238 16.238c-1.0273 1.043 0.55469 2.5977 1.5742 1.5742zm0 12.859 16.238-16.238c1.0469-1.0234-0.54297-2.6094-1.5742-1.582l-16.238 16.25c-1.0273 1.0352 0.55469 2.5938 1.5742 1.5703z"></path></g>
</svg>
</g><g opacity="1" transform="rotate(0 137.5054 106.843)">
<svg width="215.5272" height="120" x="137.5054" y="106.843" version="1.1" preserveAspectRatio="none" viewBox="1.56 -28.48 195.68 108.96000000000001">
  <g transform="matrix(1 0 0 1 0 0)" class="companyName"><path id="id-D6z1nYkh21" d="M22.24-6.24L22.24-14.44L28.16-14.44L28.16-3.08Q25.88-1.36 22.88-0.44Q19.88 0.48 16.84 0.48L16.84 0.48Q12.48 0.48 9-1.38Q5.52-3.24 3.54-6.54Q1.56-9.84 1.56-14L1.56-14Q1.56-18.16 3.54-21.46Q5.52-24.76 9.04-26.62Q12.56-28.48 16.96-28.48L16.96-28.48Q20.64-28.48 23.64-27.24Q26.64-26 28.68-23.64L28.68-23.64L24.52-19.80Q21.52-22.96 17.28-22.96L17.28-22.96Q14.60-22.96 12.52-21.84Q10.44-20.72 9.28-18.68Q8.12-16.64 8.12-14L8.12-14Q8.12-11.40 9.28-9.36Q10.44-7.32 12.50-6.18Q14.56-5.04 17.20-5.04L17.20-5.04Q20-5.04 22.24-6.24L22.24-6.24Z M46.60 0.48Q40.60 0.48 37.26-2.84Q33.92-6.16 33.92-12.32L33.92-12.32L33.92-28L40.40-28L40.40-12.56Q40.40-5.04 46.64-5.04L46.64-5.04Q49.68-5.04 51.28-6.86Q52.88-8.68 52.88-12.56L52.88-12.56L52.88-28L59.28-28L59.28-12.32Q59.28-6.16 55.94-2.84Q52.60 0.48 46.60 0.48L46.60 0.48Z M70.84 0.48Q68 0.48 65.62-0.58Q63.24-1.64 61.72-3.60L61.72-3.60L65.32-7.92Q67.60-4.84 70.52-4.84L70.52-4.84Q74.48-4.84 74.48-9.48L74.48-9.48L74.48-22.80L64.64-22.80L64.64-28L80.92-28L80.92-9.84Q80.92-4.68 78.36-2.10Q75.80 0.48 70.84 0.48L70.84 0.48Z M107.64 0L105.16-6L92.16-6L89.68 0L83.04 0L95.52-28L101.92-28L114.44 0L107.64 0ZM94.24-10.92L103.12-10.92L98.68-21.64L94.24-10.92Z M142.16 0L135.20 0L129.80-7.80L129.48-7.80L123.84-7.80L123.84 0L117.36 0L117.36-28L129.48-28Q133.20-28 135.94-26.76Q138.68-25.52 140.16-23.24Q141.64-20.96 141.64-17.84L141.64-17.84Q141.64-14.72 140.14-12.46Q138.64-10.20 135.88-9L135.88-9L142.16 0ZM135.08-17.84Q135.08-20.20 133.56-21.46Q132.04-22.72 129.12-22.72L129.12-22.72L123.84-22.72L123.84-12.96L129.12-12.96Q132.04-12.96 133.56-14.24Q135.08-15.52 135.08-17.84L135.08-17.84Z M167.68 0L165.20-6L152.20-6L149.72 0L143.08 0L155.56-28L161.96-28L174.48 0L167.68 0ZM154.28-10.92L163.16-10.92L158.72-21.64L154.28-10.92Z M181.80 0L181.80-22.72L172.84-22.72L172.84-28L197.24-28L197.24-22.72L188.28-22.72L188.28 0L181.80 0Z M26.36 40L19.40 40L14 32.20L13.68 32.20L8.04 32.20L8.04 40L1.56 40L1.56 12L13.68 12Q17.40 12 20.14 13.24Q22.88 14.48 24.36 16.76Q25.84 19.04 25.84 22.16L25.84 22.16Q25.84 25.28 24.34 27.54Q22.84 29.80 20.08 31L20.08 31L26.36 40ZM19.28 22.16Q19.28 19.80 17.76 18.54Q16.24 17.28 13.32 17.28L13.32 17.28L8.04 17.28L8.04 27.04L13.32 27.04Q16.24 27.04 17.76 25.76Q19.28 24.48 19.28 22.16L19.28 22.16Z M44.52 40.48Q40.16 40.48 36.66 38.60Q33.16 36.72 31.18 33.42Q29.20 30.12 29.20 26L29.20 26Q29.20 21.88 31.18 18.58Q33.16 15.28 36.66 13.40Q40.16 11.52 44.52 11.52L44.52 11.52Q48.88 11.52 52.36 13.40Q55.84 15.28 57.84 18.58Q59.84 21.88 59.84 26L59.84 26Q59.84 30.12 57.84 33.42Q55.84 36.72 52.36 38.60Q48.88 40.48 44.52 40.48L44.52 40.48ZM44.52 34.96Q47 34.96 49 33.82Q51 32.68 52.14 30.64Q53.28 28.60 53.28 26L53.28 26Q53.28 23.40 52.14 21.36Q51 19.32 49 18.18Q47 17.04 44.52 17.04L44.52 17.04Q42.04 17.04 40.04 18.18Q38.04 19.32 36.90 21.36Q35.76 23.40 35.76 26L35.76 26Q35.76 28.60 36.90 30.64Q38.04 32.68 40.04 33.82Q42.04 34.96 44.52 34.96L44.52 34.96Z M64.72 40L64.72 12L71.20 12L71.20 34.72L85.24 34.72L85.24 40L64.72 40Z M88.88 40L88.88 12L95.36 12L95.36 34.72L109.40 34.72L109.40 40L88.88 40Z M113.04 40L113.04 12L119.52 12L119.52 40L113.04 40Z M145.44 12L151.84 12L151.84 40L146.52 40L132.56 23L132.56 40L126.16 40L126.16 12L131.52 12L145.44 29L145.44 12Z M177.40 33.76L177.40 25.56L183.32 25.56L183.32 36.92Q181.04 38.64 178.04 39.56Q175.04 40.48 172 40.48L172 40.48Q167.64 40.48 164.16 38.62Q160.68 36.76 158.70 33.46Q156.72 30.16 156.72 26L156.72 26Q156.72 21.84 158.70 18.54Q160.68 15.24 164.20 13.38Q167.72 11.52 172.12 11.52L172.12 11.52Q175.80 11.52 178.80 12.76Q181.80 14 183.84 16.36L183.84 16.36L179.68 20.20Q176.68 17.04 172.44 17.04L172.44 17.04Q169.76 17.04 167.68 18.16Q165.60 19.28 164.44 21.32Q163.28 23.36 163.28 26L163.28 26Q163.28 28.60 164.44 30.64Q165.60 32.68 167.66 33.82Q169.72 34.96 172.36 34.96L172.36 34.96Q175.16 34.96 177.40 33.76L177.40 33.76Z M12.96 80.48Q9.64 80.48 6.54 79.58Q3.44 78.68 1.56 77.24L1.56 77.24L3.76 72.36Q5.56 73.68 8.04 74.48Q10.52 75.28 13 75.28L13 75.28Q15.76 75.28 17.08 74.46Q18.40 73.64 18.40 72.28L18.40 72.28Q18.40 71.28 17.62 70.62Q16.84 69.96 15.62 69.56Q14.40 69.16 12.32 68.68L12.32 68.68Q9.12 67.92 7.08 67.16Q5.04 66.40 3.58 64.72Q2.12 63.04 2.12 60.24L2.12 60.24Q2.12 57.80 3.44 55.82Q4.76 53.84 7.42 52.68Q10.08 51.52 13.92 51.52L13.92 51.52Q16.60 51.52 19.16 52.16Q21.72 52.80 23.64 54L23.64 54L21.64 58.92Q17.76 56.72 13.88 56.72L13.88 56.72Q11.16 56.72 9.86 57.60Q8.56 58.48 8.56 59.92L8.56 59.92Q8.56 61.36 10.06 62.06Q11.56 62.76 14.64 63.44L14.64 63.44Q17.84 64.20 19.88 64.96Q21.92 65.72 23.38 67.36Q24.84 69 24.84 71.80L24.84 71.80Q24.84 74.20 23.50 76.18Q22.16 78.16 19.48 79.32Q16.80 80.48 12.96 80.48L12.96 80.48Z M48.48 52L54.96 52L54.96 80L48.48 80L48.48 68.52L35.76 68.52L35.76 80L29.28 80L29.28 52L35.76 52L35.76 63.04L48.48 63.04L48.48 52Z M74.04 80.48Q68.04 80.48 64.70 77.16Q61.36 73.84 61.36 67.68L61.36 67.68L61.36 52L67.84 52L67.84 67.44Q67.84 74.96 74.08 74.96L74.08 74.96Q77.12 74.96 78.72 73.14Q80.32 71.32 80.32 67.44L80.32 67.44L80.32 52L86.72 52L86.72 67.68Q86.72 73.84 83.38 77.16Q80.04 80.48 74.04 80.48L74.04 80.48Z M98.44 80L98.44 57.28L89.48 57.28L89.48 52L113.88 52L113.88 57.28L104.92 57.28L104.92 80L98.44 80Z M123.56 80L123.56 57.28L114.60 57.28L114.60 52L139 52L139 57.28L130.04 57.28L130.04 80L123.56 80Z M148.92 74.80L164.16 74.80L164.16 80L142.48 80L142.48 52L163.64 52L163.64 57.20L148.92 57.20L148.92 63.28L161.92 63.28L161.92 68.32L148.92 68.32L148.92 74.80Z M194.12 80L187.16 80L181.76 72.20L181.44 72.20L175.80 72.20L175.80 80L169.32 80L169.32 52L181.44 52Q185.16 52 187.90 53.24Q190.64 54.48 192.12 56.76Q193.60 59.04 193.60 62.16L193.60 62.16Q193.60 65.28 192.10 67.54Q190.60 69.80 187.84 71L187.84 71L194.12 80ZM187.04 62.16Q187.04 59.80 185.52 58.54Q184 57.28 181.08 57.28L181.08 57.28L175.80 57.28L175.80 67.04L181.08 67.04Q184 67.04 185.52 65.76Q187.04 64.48 187.04 62.16L187.04 62.16Z"/></g>
</svg>
</g></svg></svg>